<?xml version="1.0" encoding="UTF-8"?>
<svg width="800" height="600" version="1.1" viewBox="0 0 800 600" xmlns="http://www.w3.org/2000/svg">
  <rect width="800" height="600" fill="#f8f9fa"/>
  <g transform="translate(400,300)">
    <!-- 中心控制站 -->
    <rect x="-50" y="-50" width="100" height="100" rx="10" fill="#dc3545" opacity="0.8"/>
    <!-- 无人机群 -->
    <g transform="translate(-150,-100)">
      <circle cx="0" cy="0" r="20" fill="#dc3545" opacity="0.6"/>
      <path d="M-15,-15 L15,-15 L10,15 L-10,15 Z" fill="#dc3545" opacity="0.7"/>
    </g>
    <g transform="translate(150,-100)">
      <circle cx="0" cy="0" r="20" fill="#dc3545" opacity="0.6"/>
      <path d="M-15,-15 L15,-15 L10,15 L-10,15 Z" fill="#dc3545" opacity="0.7"/>
    </g>
    <g transform="translate(-150,100)">
      <circle cx="0" cy="0" r="20" fill="#dc3545" opacity="0.6"/>
      <path d="M-15,-15 L15,-15 L10,15 L-10,15 Z" fill="#dc3545" opacity="0.7"/>
    </g>
    <g transform="translate(150,100)">
      <circle cx="0" cy="0" r="20" fill="#dc3545" opacity="0.6"/>
      <path d="M-15,-15 L15,-15 L10,15 L-10,15 Z" fill="#dc3545" opacity="0.7"/>
    </g>
    <!-- 连接线 -->
    <path d="M-50,0 L-150,0" stroke="#dc3545" stroke-width="2" opacity="0.3"/>
    <path d="M50,0 L150,0" stroke="#dc3545" stroke-width="2" opacity="0.3"/>
    <path d="M0,-50 L0,-150" stroke="#dc3545" stroke-width="2" opacity="0.3"/>
    <path d="M0,50 L0,150" stroke="#dc3545" stroke-width="2" opacity="0.3"/>
  </g>
  <text x="400" y="500" fill="#6c757d" font-family="Arial" font-size="24" text-anchor="middle">蜂群系统</text>
  <text x="400" y="530" fill="#6c757d" font-family="Arial" font-size="16" text-anchor="middle">800 x 600</text>
</svg> 