<?xml version="1.0" encoding="UTF-8"?>
<svg width="800" height="600" version="1.1" viewBox="0 0 800 600" xmlns="http://www.w3.org/2000/svg">
  <rect width="800" height="600" fill="#f8f9fa"/>
  <g transform="translate(400,300)">
    <!-- 应用场景 -->
    <g transform="translate(-150,0)">
      <!-- 电力巡检 -->
      <rect x="-60" y="-60" width="120" height="120" rx="10" fill="#0d6efd" opacity="0.1"/>
      <path d="M-40,-40 L40,-40 L20,40 L-20,40 Z" fill="#0d6efd" opacity="0.8"/>
      <line x1="-20" y1="40" x2="20" y2="40" stroke="#0d6efd" stroke-width="2"/>
    </g>
    <g transform="translate(0,0)">
      <!-- 测绘测量 -->
      <rect x="-60" y="-60" width="120" height="120" rx="10" fill="#0d6efd" opacity="0.1"/>
      <circle cx="0" cy="0" r="40" fill="none" stroke="#0d6efd" stroke-width="2"/>
      <line x1="-40" y1="0" x2="40" y2="0" stroke="#0d6efd" stroke-width="2"/>
      <line x1="0" y1="-40" x2="0" y2="40" stroke="#0d6efd" stroke-width="2"/>
    </g>
    <g transform="translate(150,0)">
      <!-- 安防监控 -->
      <rect x="-60" y="-60" width="120" height="120" rx="10" fill="#0d6efd" opacity="0.1"/>
      <circle cx="0" cy="0" r="30" fill="#0d6efd" opacity="0.8"/>
      <circle cx="0" cy="0" r="20" fill="#0d6efd" opacity="0.6"/>
      <circle cx="0" cy="0" r="10" fill="#0d6efd" opacity="0.4"/>
    </g>
  </g>
  <text x="400" y="500" fill="#6c757d" font-family="Arial" font-size="24" text-anchor="middle">F15 电动垂起航空器 - 应用场景</text>
  <text x="400" y="530" fill="#6c757d" font-family="Arial" font-size="16" text-anchor="middle">800 x 600</text>
</svg> 